<svg xmlns="http://www.w3.org/2000/svg" viewBox="0 0 100 100" width="100" height="100">
  <defs>
    <clipPath id="oval">
      <ellipse cx="50" cy="50" rx="45" ry="48"/>
    </clipPath>
  </defs>
  <g clip-path="url(#oval)">
    <!-- Row 1 -->
    <rect x="5" y="5" width="10" height="10" fill="#808080"/>
    <rect x="15" y="5" width="10" height="10" fill="#505050"/>
    <rect x="25" y="5" width="10" height="10" fill="#d0d0d0"/>
    <rect x="35" y="5" width="10" height="10" fill="#707070"/>
    <rect x="45" y="5" width="10" height="10" fill="#909090"/>
    <rect x="55" y="5" width="10" height="10" fill="#383838"/>
    <rect x="65" y="5" width="10" height="10" fill="#b0b0b0"/>
    <rect x="75" y="5" width="10" height="10" fill="#e0e0e0"/>
    <rect x="85" y="5" width="10" height="10" fill="#505050"/>
    <!-- Row 2 -->
    <rect x="5" y="15" width="10" height="10" fill="#e0e0e0"/>
    <rect x="15" y="15" width="10" height="10" fill="#909090"/>
    <rect x="25" y="15" width="10" height="10" fill="#383838"/>
    <rect x="35" y="15" width="10" height="10" fill="#ffffff"/>
    <rect x="45" y="15" width="10" height="10" fill="#505050"/>
    <rect x="55" y="15" width="10" height="10" fill="#b0b0b0"/>
    <rect x="65" y="15" width="10" height="10" fill="#202020"/>
    <rect x="75" y="15" width="10" height="10" fill="#707070"/>
    <rect x="85" y="15" width="10" height="10" fill="#d0d0d0"/>
    <!-- Row 3 -->
    <rect x="5" y="25" width="10" height="10" fill="#707070"/>
    <rect x="15" y="25" width="10" height="10" fill="#d0d0d0"/>
    <rect x="25" y="25" width="10" height="10" fill="#808080"/>
    <rect x="35" y="25" width="10" height="10" fill="#202020"/>
    <rect x="45" y="25" width="10" height="10" fill="#f0f0f0"/>
    <rect x="55" y="25" width="10" height="10" fill="#505050"/>
    <rect x="65" y="25" width="10" height="10" fill="#909090"/>
    <rect x="75" y="25" width="10" height="10" fill="#383838"/>
    <rect x="85" y="25" width="10" height="10" fill="#b0b0b0"/>
    <!-- Row 4 -->
    <rect x="5" y="35" width="10" height="10" fill="#383838"/>
    <rect x="15" y="35" width="10" height="10" fill="#f0f0f0"/>
    <rect x="25" y="35" width="10" height="10" fill="#505050"/>
    <rect x="35" y="35" width="10" height="10" fill="#b0b0b0"/>
    <rect x="45" y="35" width="10" height="10" fill="#707070"/>
    <rect x="55" y="35" width="10" height="10" fill="#202020"/>
    <rect x="65" y="35" width="10" height="10" fill="#e0e0e0"/>
    <rect x="75" y="35" width="10" height="10" fill="#808080"/>
    <rect x="85" y="35" width="10" height="10" fill="#909090"/>
    <!-- Row 5 -->
    <rect x="5" y="45" width="10" height="10" fill="#b0b0b0"/>
    <rect x="15" y="45" width="10" height="10" fill="#202020"/>
    <rect x="25" y="45" width="10" height="10" fill="#909090"/>
    <rect x="35" y="45" width="10" height="10" fill="#e0e0e0"/>
    <rect x="45" y="45" width="10" height="10" fill="#383838"/>
    <rect x="55" y="45" width="10" height="10" fill="#ffffff"/>
    <rect x="65" y="45" width="10" height="10" fill="#505050"/>
    <rect x="75" y="45" width="10" height="10" fill="#d0d0d0"/>
    <rect x="85" y="45" width="10" height="10" fill="#707070"/>
    <!-- Row 6 -->
    <rect x="5" y="55" width="10" height="10" fill="#909090"/>
    <rect x="15" y="55" width="10" height="10" fill="#707070"/>
    <rect x="25" y="55" width="10" height="10" fill="#ffffff"/>
    <rect x="35" y="55" width="10" height="10" fill="#383838"/>
    <rect x="45" y="55" width="10" height="10" fill="#d0d0d0"/>
    <rect x="55" y="55" width="10" height="10" fill="#808080"/>
    <rect x="65" y="55" width="10" height="10" fill="#b0b0b0"/>
    <rect x="75" y="55" width="10" height="10" fill="#202020"/>
    <rect x="85" y="55" width="10" height="10" fill="#f0f0f0"/>
    <!-- Row 7 -->
    <rect x="5" y="65" width="10" height="10" fill="#505050"/>
    <rect x="15" y="65" width="10" height="10" fill="#b0b0b0"/>
    <rect x="25" y="65" width="10" height="10" fill="#202020"/>
    <rect x="35" y="65" width="10" height="10" fill="#808080"/>
    <rect x="45" y="65" width="10" height="10" fill="#909090"/>
    <rect x="55" y="65" width="10" height="10" fill="#f0f0f0"/>
    <rect x="65" y="65" width="10" height="10" fill="#383838"/>
    <rect x="75" y="65" width="10" height="10" fill="#e0e0e0"/>
    <rect x="85" y="65" width="10" height="10" fill="#505050"/>
    <!-- Row 8 -->
    <rect x="5" y="75" width="10" height="10" fill="#d0d0d0"/>
    <rect x="15" y="75" width="10" height="10" fill="#383838"/>
    <rect x="25" y="75" width="10" height="10" fill="#e0e0e0"/>
    <rect x="35" y="75" width="10" height="10" fill="#505050"/>
    <rect x="45" y="75" width="10" height="10" fill="#b0b0b0"/>
    <rect x="55" y="75" width="10" height="10" fill="#707070"/>
    <rect x="65" y="75" width="10" height="10" fill="#808080"/>
    <rect x="75" y="75" width="10" height="10" fill="#909090"/>
    <rect x="85" y="75" width="10" height="10" fill="#202020"/>
    <!-- Row 9 -->
    <rect x="5" y="85" width="10" height="10" fill="#f0f0f0"/>
    <rect x="15" y="85" width="10" height="10" fill="#808080"/>
    <rect x="25" y="85" width="10" height="10" fill="#707070"/>
    <rect x="35" y="85" width="10" height="10" fill="#909090"/>
    <rect x="45" y="85" width="10" height="10" fill="#202020"/>
    <rect x="55" y="85" width="10" height="10" fill="#e0e0e0"/>
    <rect x="65" y="85" width="10" height="10" fill="#d0d0d0"/>
    <rect x="75" y="85" width="10" height="10" fill="#505050"/>
    <rect x="85" y="85" width="10" height="10" fill="#b0b0b0"/>
  </g>
</svg>
